<svg width="512" height="512" viewBox="0 0 512 512" fill="none" xmlns="http://www.w3.org/2000/svg">
  <!-- Rounded container background with premium gradient -->
  <rect width="512" height="512" rx="128" fill="url(#paint0_linear)"/>
  
  <!-- Stylized Note Page -->
  <path d="M160 144C160 135.163 167.163 128 176 128H288L352 192V368C352 376.837 344.837 384 336 384H176C167.163 384 160 376.837 160 368V144Z" fill="white" fill-opacity="0.15"/>
  <path d="M176 128H288V192H352V368C352 376.837 344.837 384 336 384H176C167.163 384 160 376.837 160 368V144C160 135.163 167.163 128 176 128Z" stroke="white" stroke-width="20" stroke-linejoin="round"/>
  
  <!-- Folded corner of the note page -->
  <path d="M288 128V192H352L288 128Z" fill="white"/>
  
  <!-- Stylized note writing lines -->
  <line x1="200" y1="240" x2="312" y2="240" stroke="white" stroke-width="16" stroke-linecap="round"/>
  <line x1="200" y1="288" x2="312" y2="288" stroke="white" stroke-width="16" stroke-linecap="round"/>
  <line x1="200" y1="336" x2="272" y2="336" stroke="white" stroke-width="16" stroke-linecap="round"/>
  
  <!-- Decorative glowing circle -->
  <circle cx="256" cy="256" r="220" stroke="url(#paint1_linear)" stroke-width="8" stroke-opacity="0.5"/>
  
  <defs>
    <!-- Linear Gradient for background -->
    <linearGradient id="paint0_linear" x1="0" y1="0" x2="512" y2="512" gradientUnits="userSpaceOnUse">
      <stop stop-color="#8B5CF6"/> <!-- Violet-500 -->
      <stop offset="1" stop-color="#3B82F6"/> <!-- Blue-500 -->
    </linearGradient>
    <!-- Glowing circle border gradient -->
    <linearGradient id="paint1_linear" x1="0" y1="0" x2="512" y2="512" gradientUnits="userSpaceOnUse">
      <stop stop-color="#F472B6"/> <!-- Pink-400 -->
      <stop offset="1" stop-color="#60A5FA"/> <!-- Blue-400 -->
    </linearGradient>
  </defs>
</svg>
